<?xml version="1.0" encoding="UTF-8"?> <svg xmlns="http://www.w3.org/2000/svg" width="49" height="49" viewBox="0 0 49 49" fill="none"><circle cx="24.5" cy="24.5" r="24" stroke="#086EB7"></circle><path d="M32.1003 32.0998V26.5328C32.1003 23.7968 31.5113 21.7068 28.3193 21.7068C26.7803 21.7068 25.7543 22.5428 25.3363 23.3408H25.2983V21.9538H22.2773V32.0998H25.4313V27.0648C25.4313 25.7348 25.6783 24.4618 27.3123 24.4618C28.9273 24.4618 28.9463 25.9628 28.9463 27.1408V32.0808H32.1003V32.0998Z" fill="#086EB7"></path><path d="M17.1465 21.9539H20.3005V32.0999H17.1465V21.9539Z" fill="#086EB7"></path><path d="M18.7244 16.8999C17.7174 16.8999 16.9004 17.7169 16.9004 18.7239C16.9004 19.7309 17.7174 20.5669 18.7244 20.5669C19.7314 20.5669 20.5484 19.7309 20.5484 18.7239C20.5484 17.7169 19.7314 16.8999 18.7244 16.8999Z" fill="#086EB7"></path></svg> 