<?xml version="1.0" encoding="UTF-8"?> <svg xmlns="http://www.w3.org/2000/svg" width="26" height="26" viewBox="0 0 26 26" fill="none"><g clip-path="url(#clip0_152_13)"><path d="M25.9567 12.4583C25.8084 11.6889 25.3944 10.9961 24.787 10.5011C24.1797 10.006 23.4176 9.74015 22.6341 9.75H19.0591L14.5665 1.69325C14.2869 1.18072 13.8743 0.752993 13.3722 0.455036C12.87 0.157078 12.2969 -0.000108013 11.713 5.56874e-08H7.65813L10.9493 9.75H7.56713L6.37546 7.95492C6.07989 7.50777 5.67811 7.14085 5.20606 6.88696C4.734 6.63306 4.20638 6.50012 3.67038 6.5H0.0292969L2.42671 13L0.0433802 19.5H3.68338C4.22038 19.5002 4.74902 19.367 5.22177 19.1123C5.69452 18.8576 6.09655 18.4894 6.39171 18.0408L7.57038 16.25H10.9493L7.65813 26H11.713C12.2954 26.0001 12.8671 25.8437 13.3683 25.5471C13.8696 25.2506 14.2819 24.8248 14.5622 24.3143L19.0537 16.25H22.75C23.2229 16.2503 23.6901 16.1475 24.119 15.9486C24.548 15.7497 24.9284 15.4597 25.2337 15.0987C25.539 14.7377 25.7619 14.3144 25.8868 13.8583C26.0116 13.4023 26.0355 12.9245 25.9567 12.4583ZM23.5734 13.6977C23.4723 13.8178 23.3463 13.9145 23.2041 13.9811C23.062 14.0476 22.907 14.0825 22.75 14.0833H17.7797L12.6642 23.2689C12.571 23.4398 12.4335 23.5823 12.2661 23.6817C12.0987 23.781 11.9077 23.8334 11.713 23.8333H10.6752L13.9675 14.0833H6.40038L4.5858 16.848C4.48711 16.9971 4.35305 17.1194 4.1956 17.2041C4.03814 17.2888 3.86217 17.3332 3.68338 17.3333H3.14821L4.7353 13L3.14171 8.66667H3.67471C3.8535 8.66682 4.02947 8.71122 4.18693 8.7959C4.34439 8.88058 4.47844 9.00292 4.57713 9.152L6.40363 11.9167H13.9675L10.6752 2.16667H11.713C11.9093 2.16669 12.1018 2.22002 12.2701 2.32096C12.4384 2.42189 12.5761 2.56664 12.6685 2.73975L17.7797 11.9167H22.6341C22.9041 11.9067 23.1692 11.9902 23.3847 12.153C23.6002 12.3158 23.753 12.548 23.8171 12.8104C23.845 12.9674 23.838 13.1286 23.7964 13.2825C23.7548 13.4365 23.6798 13.5793 23.5766 13.7009L23.5734 13.6977Z" fill="white"></path></g><defs><clipPath id="clip0_152_13"><rect width="26" height="26" fill="white"></rect></clipPath></defs></svg> 